<svg xmlns="http://www.w3.org/2000/svg" viewBox="0 0 41.17 49.52"><title>worker</title><g id="Слой_2" data-name="Слой 2"><g id="Слой_1-2" data-name="Слой 1"><path fill="white" d="M8.25,14.89H33.36a.59.59,0,0,0,.6-.56v-.65a.58.58,0,0,0-.6-.56H8.25a.59.59,0,0,0-.61.56v.65A.59.59,0,0,0,8.25,14.89Z"/><path fill="white" d="M27,2.12l-.83,4.74a1.39,1.39,0,0,1-2.74-.48l1-5.71a9.7,9.7,0,0,0-7.34.1l1,5.54a1.39,1.39,0,1,1-2.74.48L14.53,2.3a13.7,13.7,0,0,0-4.8,9H32A13.63,13.63,0,0,0,27,2.12Z"/><path fill="white" d="M29.39,27.4c-2,3.5-5.21,5.77-8.81,5.77s-6.79-2.26-8.81-5.77A13,13,0,0,0,0,40.3v1.82a2.72,2.72,0,0,0,1.4,2.42,38.62,38.62,0,0,0,19.18,5,38.62,38.62,0,0,0,19.18-5,2.72,2.72,0,0,0,1.4-2.42V40.3A13,13,0,0,0,29.39,27.4Z"/><path fill="white" d="M20.58,30.5c5.28,0,9.6-6.15,9.84-13.87H10.74C11,24.35,15.3,30.5,20.58,30.5Z"/></g></g></svg>